<svg xmlns="http://www.w3.org/2000/svg" xmlns:xlink="http://www.w3.org/1999/xlink" width="350" zoomAndPan="magnify" viewBox="0 0 262.5 135.000003" height="180" preserveAspectRatio="xMidYMid meet" version="1.2"><defs><clipPath id="a7d947f330"><path d="M 39 45 L 83 45 L 83 95 L 39 95 Z M 39 45 "/></clipPath><clipPath id="e7d5445b1d"><path d="M 77.757812 90.214844 L 73.597656 86.011719 L 73.496094 75.179688 C 73.367188 62.40625 73.300781 62.042969 69.925781 58.464844 C 66.683594 54.953125 62.328125 53.640625 57.839844 54.789062 C 52.597656 56.132812 49.0625 59.84375 47.980469 65.097656 C 46.898438 70.285156 50.042969 76.195312 55.054688 78.496094 C 57.316406 79.546875 59.773438 79.9375 64.097656 79.9375 L 67.570312 79.9375 L 70.453125 82.925781 L 73.300781 85.914062 L 72.054688 87.195312 L 70.8125 88.476562 L 65.765625 88.476562 C 59.773438 88.476562 56.890625 88.082031 53.546875 86.800781 C 47.03125 84.304688 42.476562 79.609375 40.28125 73.207031 C 39.496094 70.941406 39.398438 70.089844 39.398438 66.96875 C 39.429688 60.632812 41.492188 55.90625 46.242188 51.40625 C 56.105469 42.015625 71.402344 43.425781 78.671875 54.359375 C 80.671875 57.414062 81.71875 60.46875 82.046875 64.441406 C 82.277344 66.96875 82.210938 93.171875 81.980469 94.15625 C 81.949219 94.289062 80.050781 92.515625 77.757812 90.214844 Z M 77.757812 90.214844 "/></clipPath><radialGradient gradientTransform="matrix(0.998826,0,0,1.001174,23.116983,20.837341)" id="884901b27f" gradientUnits="userSpaceOnUse" r="42.215098" cx="46.570128" fx="46.570128" cy="33.36061" fy="33.36061"><stop style="stop-color:#08a698;stop-opacity:1;" offset="0"/><stop style="stop-color:#08a698;stop-opacity:1;" offset="0.03125"/><stop style="stop-color:#08a598;stop-opacity:1;" offset="0.0585938"/><stop style="stop-color:#07a498;stop-opacity:1;" offset="0.0625"/><stop style="stop-color:#07a498;stop-opacity:1;" offset="0.0664062"/><stop style="stop-color:#07a497;stop-opacity:1;" offset="0.0703125"/><stop style="stop-color:#07a397;stop-opacity:1;" offset="0.0742188"/><stop style="stop-color:#07a397;stop-opacity:1;" offset="0.078125"/><stop style="stop-color:#07a297;stop-opacity:1;" offset="0.0820312"/><stop style="stop-color:#07a297;stop-opacity:1;" offset="0.0859375"/><stop style="stop-color:#07a297;stop-opacity:1;" offset="0.0898438"/><stop style="stop-color:#07a197;stop-opacity:1;" offset="0.09375"/><stop style="stop-color:#06a197;stop-opacity:1;" offset="0.0976562"/><stop style="stop-color:#06a097;stop-opacity:1;" offset="0.101562"/><stop style="stop-color:#06a097;stop-opacity:1;" offset="0.105469"/><stop style="stop-color:#069f97;stop-opacity:1;" offset="0.109375"/><stop style="stop-color:#069f97;stop-opacity:1;" offset="0.113281"/><stop style="stop-color:#069f96;stop-opacity:1;" offset="0.117188"/><stop style="stop-color:#069e96;stop-opacity:1;" offset="0.121094"/><stop style="stop-color:#069e96;stop-opacity:1;" offset="0.125"/><stop style="stop-color:#069d96;stop-opacity:1;" offset="0.128906"/><stop style="stop-color:#059d96;stop-opacity:1;" offset="0.132812"/><stop style="stop-color:#059c96;stop-opacity:1;" offset="0.136719"/><stop style="stop-color:#059c96;stop-opacity:1;" offset="0.140625"/><stop style="stop-color:#059c96;stop-opacity:1;" offset="0.144531"/><stop style="stop-color:#059b96;stop-opacity:1;" offset="0.148438"/><stop style="stop-color:#059b96;stop-opacity:1;" offset="0.152344"/><stop style="stop-color:#059a96;stop-opacity:1;" offset="0.15625"/><stop style="stop-color:#059a96;stop-opacity:1;" offset="0.160156"/><stop style="stop-color:#059a95;stop-opacity:1;" offset="0.164062"/><stop style="stop-color:#049995;stop-opacity:1;" offset="0.167969"/><stop style="stop-color:#049995;stop-opacity:1;" offset="0.171875"/><stop style="stop-color:#049895;stop-opacity:1;" offset="0.175781"/><stop style="stop-color:#049895;stop-opacity:1;" offset="0.179688"/><stop style="stop-color:#049795;stop-opacity:1;" offset="0.183594"/><stop style="stop-color:#049795;stop-opacity:1;" offset="0.1875"/><stop style="stop-color:#049795;stop-opacity:1;" offset="0.191406"/><stop style="stop-color:#049695;stop-opacity:1;" offset="0.195312"/><stop style="stop-color:#039695;stop-opacity:1;" offset="0.199219"/><stop style="stop-color:#039595;stop-opacity:1;" offset="0.203125"/><stop style="stop-color:#039595;stop-opacity:1;" offset="0.207031"/><stop style="stop-color:#039494;stop-opacity:1;" offset="0.210938"/><stop style="stop-color:#039494;stop-opacity:1;" offset="0.214844"/><stop style="stop-color:#039494;stop-opacity:1;" offset="0.21875"/><stop style="stop-color:#039394;stop-opacity:1;" offset="0.222656"/><stop style="stop-color:#039394;stop-opacity:1;" offset="0.226562"/><stop style="stop-color:#039294;stop-opacity:1;" offset="0.230469"/><stop style="stop-color:#029294;stop-opacity:1;" offset="0.234375"/><stop style="stop-color:#029294;stop-opacity:1;" offset="0.238281"/><stop style="stop-color:#029194;stop-opacity:1;" offset="0.242188"/><stop style="stop-color:#029194;stop-opacity:1;" offset="0.246094"/><stop style="stop-color:#029094;stop-opacity:1;" offset="0.25"/><stop style="stop-color:#029093;stop-opacity:1;" offset="0.253906"/><stop style="stop-color:#028f93;stop-opacity:1;" offset="0.261719"/><stop style="stop-color:#018e93;stop-opacity:1;" offset="0.269531"/><stop style="stop-color:#018d93;stop-opacity:1;" offset="0.277344"/><stop style="stop-color:#018c93;stop-opacity:1;" offset="0.285156"/><stop style="stop-color:#018b93;stop-opacity:1;" offset="0.292969"/><stop style="stop-color:#008b92;stop-opacity:1;" offset="0.300781"/><stop style="stop-color:#008a92;stop-opacity:1;" offset="0.308594"/><stop style="stop-color:#008992;stop-opacity:1;" offset="0.316406"/><stop style="stop-color:#008893;stop-opacity:1;" offset="0.324219"/><stop style="stop-color:#008793;stop-opacity:1;" offset="0.332031"/><stop style="stop-color:#008693;stop-opacity:1;" offset="0.339844"/><stop style="stop-color:#008594;stop-opacity:1;" offset="0.347656"/><stop style="stop-color:#008594;stop-opacity:1;" offset="0.355469"/><stop style="stop-color:#008495;stop-opacity:1;" offset="0.363281"/><stop style="stop-color:#008395;stop-opacity:1;" offset="0.371094"/><stop style="stop-color:#008295;stop-opacity:1;" offset="0.378906"/><stop style="stop-color:#008196;stop-opacity:1;" offset="0.386719"/><stop style="stop-color:#008096;stop-opacity:1;" offset="0.394531"/><stop style="stop-color:#008097;stop-opacity:1;" offset="0.402344"/><stop style="stop-color:#007f97;stop-opacity:1;" offset="0.410156"/><stop style="stop-color:#007e97;stop-opacity:1;" offset="0.417969"/><stop style="stop-color:#007d98;stop-opacity:1;" offset="0.425781"/><stop style="stop-color:#007c98;stop-opacity:1;" offset="0.433594"/><stop style="stop-color:#007b99;stop-opacity:1;" offset="0.441406"/><stop style="stop-color:#007a99;stop-opacity:1;" offset="0.449219"/><stop style="stop-color:#007a99;stop-opacity:1;" offset="0.457031"/><stop style="stop-color:#00799a;stop-opacity:1;" offset="0.464844"/><stop style="stop-color:#00789a;stop-opacity:1;" offset="0.472656"/><stop style="stop-color:#00779b;stop-opacity:1;" offset="0.480469"/><stop style="stop-color:#00769b;stop-opacity:1;" offset="0.488281"/><stop style="stop-color:#00759c;stop-opacity:1;" offset="0.496094"/><stop style="stop-color:#00759c;stop-opacity:1;" offset="0.503906"/><stop style="stop-color:#00749c;stop-opacity:1;" offset="0.507812"/><stop style="stop-color:#00749c;stop-opacity:1;" offset="0.511719"/><stop style="stop-color:#00739c;stop-opacity:1;" offset="0.515625"/><stop style="stop-color:#00739d;stop-opacity:1;" offset="0.519531"/><stop style="stop-color:#00729d;stop-opacity:1;" offset="0.523438"/><stop style="stop-color:#00729d;stop-opacity:1;" offset="0.527344"/><stop style="stop-color:#00719c;stop-opacity:1;" offset="0.53125"/><stop style="stop-color:#00709a;stop-opacity:1;" offset="0.535156"/><stop style="stop-color:#006e98;stop-opacity:1;" offset="0.539062"/><stop style="stop-color:#006d97;stop-opacity:1;" offset="0.542969"/><stop style="stop-color:#006b95;stop-opacity:1;" offset="0.546875"/><stop style="stop-color:#006a93;stop-opacity:1;" offset="0.550781"/><stop style="stop-color:#006991;stop-opacity:1;" offset="0.554688"/><stop style="stop-color:#006790;stop-opacity:1;" offset="0.558594"/><stop style="stop-color:#00668e;stop-opacity:1;" offset="0.5625"/><stop style="stop-color:#00658c;stop-opacity:1;" offset="0.566406"/><stop style="stop-color:#00638b;stop-opacity:1;" offset="0.570312"/><stop style="stop-color:#006289;stop-opacity:1;" offset="0.574219"/><stop style="stop-color:#006187;stop-opacity:1;" offset="0.578125"/><stop style="stop-color:#005f85;stop-opacity:1;" offset="0.582031"/><stop style="stop-color:#005e84;stop-opacity:1;" offset="0.585938"/><stop style="stop-color:#005d82;stop-opacity:1;" offset="0.589844"/><stop style="stop-color:#005b80;stop-opacity:1;" offset="0.59375"/><stop style="stop-color:#005a7f;stop-opacity:1;" offset="0.597656"/><stop style="stop-color:#00597d;stop-opacity:1;" offset="0.601562"/><stop style="stop-color:#00577b;stop-opacity:1;" offset="0.605469"/><stop style="stop-color:#005679;stop-opacity:1;" offset="0.609375"/><stop style="stop-color:#005578;stop-opacity:1;" offset="0.613281"/><stop style="stop-color:#005376;stop-opacity:1;" offset="0.617188"/><stop style="stop-color:#005274;stop-opacity:1;" offset="0.621094"/><stop style="stop-color:#005073;stop-opacity:1;" offset="0.625"/><stop style="stop-color:#004f71;stop-opacity:1;" offset="0.628906"/><stop style="stop-color:#004e6f;stop-opacity:1;" offset="0.632812"/><stop style="stop-color:#004c6e;stop-opacity:1;" offset="0.636719"/><stop style="stop-color:#004b6c;stop-opacity:1;" offset="0.640625"/><stop style="stop-color:#00496b;stop-opacity:1;" offset="0.644531"/><stop style="stop-color:#00486a;stop-opacity:1;" offset="0.648438"/><stop style="stop-color:#004668;stop-opacity:1;" offset="0.652344"/><stop style="stop-color:#004567;stop-opacity:1;" offset="0.65625"/><stop style="stop-color:#004366;stop-opacity:1;" offset="0.660156"/><stop style="stop-color:#004265;stop-opacity:1;" offset="0.664062"/><stop style="stop-color:#004064;stop-opacity:1;" offset="0.667969"/><stop style="stop-color:#003e62;stop-opacity:1;" offset="0.671875"/><stop style="stop-color:#003d61;stop-opacity:1;" offset="0.675781"/><stop style="stop-color:#003b60;stop-opacity:1;" offset="0.679688"/><stop style="stop-color:#003a5f;stop-opacity:1;" offset="0.683594"/><stop style="stop-color:#00385d;stop-opacity:1;" offset="0.6875"/><stop style="stop-color:#00375c;stop-opacity:1;" offset="0.691406"/><stop style="stop-color:#00355b;stop-opacity:1;" offset="0.695312"/><stop style="stop-color:#00335a;stop-opacity:1;" offset="0.699219"/><stop style="stop-color:#003258;stop-opacity:1;" offset="0.703125"/><stop style="stop-color:#003157;stop-opacity:1;" offset="0.707031"/><stop style="stop-color:#003057;stop-opacity:1;" offset="0.710938"/><stop style="stop-color:#002f56;stop-opacity:1;" offset="0.726562"/><stop style="stop-color:#002f56;stop-opacity:1;" offset="0.742188"/><stop style="stop-color:#002e56;stop-opacity:1;" offset="0.757812"/><stop style="stop-color:#002d55;stop-opacity:1;" offset="0.785156"/><stop style="stop-color:#002c55;stop-opacity:1;" offset="0.808594"/><stop style="stop-color:#002b54;stop-opacity:1;" offset="0.832031"/><stop style="stop-color:#002b54;stop-opacity:1;" offset="0.851562"/><stop style="stop-color:#002a54;stop-opacity:1;" offset="0.867188"/><stop style="stop-color:#002a53;stop-opacity:1;" offset="0.882812"/><stop style="stop-color:#002953;stop-opacity:1;" offset="0.910156"/><stop style="stop-color:#002852;stop-opacity:1;" offset="0.929688"/><stop style="stop-color:#002752;stop-opacity:1;" offset="0.945312"/><stop style="stop-color:#002651;stop-opacity:1;" offset="0.972656"/><stop style="stop-color:#002651;stop-opacity:1;" offset="1"/></radialGradient></defs><g id="3291ce53e3"><g style="fill:#f5f9f8;fill-opacity:1;"><g transform="translate(91.404071, 82.70144)"><path style="stroke:none" d="M 25.71875 -8.703125 L 7.578125 -8.703125 L 3.671875 0 L 0.09375 0 L 14.96875 -32.546875 L 18.375 -32.546875 L 33.25 0 L 29.625 0 Z M 24.453125 -11.484375 L 16.640625 -28.96875 L 8.828125 -11.484375 Z M 24.453125 -11.484375 "/></g></g><g style="fill:#f5f9f8;fill-opacity:1;"><g transform="translate(124.508504, 82.70144)"><path style="stroke:none" d="M 26.921875 -24.453125 L 26.921875 9.015625 L 23.625 9.015625 L 23.625 -4.609375 C 22.601562 -3.023438 21.289062 -1.820312 19.6875 -1 C 18.09375 -0.175781 16.304688 0.234375 14.328125 0.234375 C 11.992188 0.234375 9.90625 -0.285156 8.0625 -1.328125 C 6.21875 -2.367188 4.769531 -3.832031 3.71875 -5.71875 C 2.664062 -7.613281 2.140625 -9.785156 2.140625 -12.234375 C 2.140625 -14.648438 2.664062 -16.800781 3.71875 -18.6875 C 4.769531 -20.582031 6.222656 -22.046875 8.078125 -23.078125 C 9.941406 -24.117188 12.023438 -24.640625 14.328125 -24.640625 C 16.367188 -24.640625 18.203125 -24.207031 19.828125 -23.34375 C 21.460938 -22.476562 22.773438 -21.238281 23.765625 -19.625 L 23.765625 -24.453125 Z M 14.59375 -2.703125 C 16.300781 -2.703125 17.84375 -3.09375 19.21875 -3.875 C 20.601562 -4.664062 21.691406 -5.789062 22.484375 -7.25 C 23.273438 -8.707031 23.671875 -10.367188 23.671875 -12.234375 C 23.671875 -14.085938 23.273438 -15.734375 22.484375 -17.171875 C 21.691406 -18.617188 20.601562 -19.742188 19.21875 -20.546875 C 17.84375 -21.359375 16.300781 -21.765625 14.59375 -21.765625 C 12.863281 -21.765625 11.304688 -21.359375 9.921875 -20.546875 C 8.546875 -19.742188 7.460938 -18.617188 6.671875 -17.171875 C 5.878906 -15.734375 5.484375 -14.085938 5.484375 -12.234375 C 5.484375 -10.367188 5.878906 -8.707031 6.671875 -7.25 C 7.460938 -5.789062 8.546875 -4.664062 9.921875 -3.875 C 11.304688 -3.09375 12.863281 -2.703125 14.59375 -2.703125 Z M 14.59375 -2.703125 "/></g></g><g style="fill:#f5f9f8;fill-opacity:1;"><g transform="translate(156.032152, 82.70144)"><path style="stroke:none" d="M 26.640625 -24.453125 L 26.640625 0 L 23.484375 0 L 23.484375 -4.46875 C 22.617188 -2.976562 21.425781 -1.820312 19.90625 -1 C 18.382812 -0.175781 16.644531 0.234375 14.6875 0.234375 C 11.5 0.234375 8.984375 -0.65625 7.140625 -2.4375 C 5.296875 -4.21875 4.375 -6.832031 4.375 -10.28125 L 4.375 -24.453125 L 7.671875 -24.453125 L 7.671875 -10.609375 C 7.671875 -8.035156 8.304688 -6.082031 9.578125 -4.75 C 10.847656 -3.414062 12.660156 -2.75 15.015625 -2.75 C 17.585938 -2.75 19.617188 -3.53125 21.109375 -5.09375 C 22.597656 -6.65625 23.34375 -8.832031 23.34375 -11.625 L 23.34375 -24.453125 Z M 26.640625 -24.453125 "/></g></g><g style="fill:#f5f9f8;fill-opacity:1;"><g transform="translate(187.323328, 82.70144)"><path style="stroke:none" d="M 4.609375 -24.453125 L 7.90625 -24.453125 L 7.90625 0 L 4.609375 0 Z M 6.28125 -29.8125 C 5.601562 -29.8125 5.03125 -30.039062 4.5625 -30.5 C 4.09375 -30.96875 3.859375 -31.523438 3.859375 -32.171875 C 3.859375 -32.796875 4.09375 -33.335938 4.5625 -33.796875 C 5.03125 -34.265625 5.601562 -34.5 6.28125 -34.5 C 6.96875 -34.5 7.539062 -34.273438 8 -33.828125 C 8.46875 -33.378906 8.703125 -32.84375 8.703125 -32.21875 C 8.703125 -31.539062 8.46875 -30.96875 8 -30.5 C 7.539062 -30.039062 6.96875 -29.8125 6.28125 -29.8125 Z M 6.28125 -29.8125 "/></g></g><g style="fill:#f5f9f8;fill-opacity:1;"><g transform="translate(199.830493, 82.70144)"><path style="stroke:none" d="M 17.484375 -1.484375 C 16.859375 -0.929688 16.085938 -0.503906 15.171875 -0.203125 C 14.265625 0.0859375 13.316406 0.234375 12.328125 0.234375 C 10.023438 0.234375 8.253906 -0.382812 7.015625 -1.625 C 5.773438 -2.863281 5.15625 -4.613281 5.15625 -6.875 L 5.15625 -21.671875 L 0.796875 -21.671875 L 0.796875 -24.453125 L 5.15625 -24.453125 L 5.15625 -29.8125 L 8.46875 -29.8125 L 8.46875 -24.453125 L 15.90625 -24.453125 L 15.90625 -21.671875 L 8.46875 -21.671875 L 8.46875 -7.0625 C 8.46875 -5.601562 8.832031 -4.492188 9.5625 -3.734375 C 10.289062 -2.984375 11.332031 -2.609375 12.6875 -2.609375 C 13.375 -2.609375 14.035156 -2.710938 14.671875 -2.921875 C 15.304688 -3.140625 15.859375 -3.453125 16.328125 -3.859375 Z M 17.484375 -1.484375 "/></g></g><g style="fill:#f5f9f8;fill-opacity:1;"><g transform="translate(218.242452, 82.70144)"><path style="stroke:none" d="M 25.15625 -24.453125 L 12.921875 2.921875 C 11.929688 5.222656 10.785156 6.851562 9.484375 7.8125 C 8.179688 8.769531 6.617188 9.25 4.796875 9.25 C 3.609375 9.25 2.503906 9.0625 1.484375 8.6875 C 0.460938 8.320312 -0.414062 7.765625 -1.15625 7.015625 L 0.375 4.5625 C 1.613281 5.800781 3.101562 6.421875 4.84375 6.421875 C 5.957031 6.421875 6.90625 6.109375 7.6875 5.484375 C 8.476562 4.867188 9.21875 3.816406 9.90625 2.328125 L 10.96875 -0.046875 L 0.046875 -24.453125 L 3.484375 -24.453125 L 12.6875 -3.671875 L 21.90625 -24.453125 Z M 25.15625 -24.453125 "/></g></g><g clip-rule="nonzero" clip-path="url(#a7d947f330)"><g clip-rule="nonzero" clip-path="url(#e7d5445b1d)"><path style=" stroke:none;fill-rule:nonzero;fill:url(#884901b27f);" d="M 39.398438 42.015625 L 39.398438 94.289062 L 82.277344 94.289062 L 82.277344 42.015625 Z M 39.398438 42.015625 "/></g></g></g></svg>